<?xml version="1.0" standalone="no"?>
<!DOCTYPE svg PUBLIC "-//W3C//DTD SVG 20010904//EN"
 "http://www.w3.org/TR/2001/REC-SVG-20010904/DTD/svg10.dtd">
<svg version="1.0" xmlns="http://www.w3.org/2000/svg"
 width="360.000000pt" height="150.000000pt" viewBox="0 0 360.000000 150.000000"
 preserveAspectRatio="xMidYMid meet">

<g transform="translate(0.000000,150.000000) scale(0.100000,-0.100000)"
fill="#000000" stroke="none">
<path d="M0 750 l0 -750 1800 0 1800 0 0 750 0 750 -1800 0 -1800 0 0 -750z
m1562 596 c112 -22 208 -71 285 -145 35 -34 33 -36 82 51 44 79 71 98 137 98
41 0 58 -5 78 -22 13 -13 67 -98 119 -189 326 -569 411 -715 419 -726 19 -24
26 -73 16 -110 -13 -50 -41 -79 -86 -89 -20 -5 -320 -7 -667 -4 -596 5 -632 6
-675 24 -194 84 -330 230 -374 402 -20 78 -21 212 -1 289 62 244 293 429 542
434 28 1 84 -5 125 -13z"/>
<path d="M1319 1231 c-163 -52 -284 -173 -323 -326 -50 -189 32 -409 191 -514
36 -24 58 -31 94 -31 128 0 162 42 448 547 103 182 103 176 29 236 -122 99
-296 134 -439 88z"/>
<path d="M2043 1238 c-6 -7 -95 -159 -198 -338 -279 -483 -290 -501 -336 -548
l-42 -42 214 0 214 0 17 80 c29 138 95 251 198 335 52 42 165 105 189 105 8 0
11 7 8 18 -10 37 -226 397 -239 400 -8 2 -20 -3 -25 -10z"/>
<path d="M2296 719 c-95 -38 -177 -110 -229 -200 -23 -39 -44 -101 -61 -182
l-6 -27 297 2 c291 3 298 3 297 23 0 26 -223 405 -238 404 -6 0 -33 -9 -60
-20z"/>
</g>
</svg>
