<?xml version="1.0" standalone="no"?>
<!DOCTYPE svg PUBLIC "-//W3C//DTD SVG 20010904//EN"
 "http://www.w3.org/TR/2001/REC-SVG-20010904/DTD/svg10.dtd">
<svg version="1.0" xmlns="http://www.w3.org/2000/svg"
 width="360.000000pt" height="390.000000pt" viewBox="0 0 360.000000 390.000000"
 preserveAspectRatio="xMidYMid meet">

<g transform="translate(0.000000,390.000000) scale(0.100000,-0.100000)"
fill="#000000" stroke="none">
<path d="M88 2100 c-2 -946 -3 -1795 -3 -1887 l0 -168 107 -3 108 -3 2 1783 3
1783 970 3 c649 2 997 -1 1053 -8 470 -61 831 -401 938 -882 27 -119 23 -319
-9 -448 -51 -210 -136 -365 -279 -511 -172 -176 -388 -284 -632 -318 -48 -7
-312 -11 -702 -11 l-624 0 0 -695 0 -695 104 0 104 0 8 43 c4 23 5 285 3 582
l-4 540 565 6 c610 6 616 7 805 66 303 95 568 311 734 598 123 214 184 493
161 737 -30 318 -163 600 -395 834 -149 150 -298 242 -500 310 -194 64 -181
64 -1407 64 l-1108 0 -2 -1720z"/>
<path d="M550 1690 l0 -1651 108 3 107 3 3 1538 2 1537 753 0 c804 0 808 -1
922 -51 153 -67 277 -207 332 -373 33 -102 37 -247 9 -341 -50 -168 -168 -311
-318 -385 -138 -68 -158 -70 -725 -70 l-503 0 -2 488 -3 487 -107 3 -108 3 0
-596 0 -595 646 0 c691 0 682 -1 824 51 229 84 412 276 495 520 132 388 -55
817 -435 998 -169 80 -97 75 -1102 79 l-898 3 0 -1651z"/>
</g>
</svg>
